:SAMPLES-PER-SECOND 30
:FULLY-SPECIFIED
:DEGREES
152
root  -52.2204 37.8827 -7.61653 -37.5538 -81.2243 34.6673
RightUpLeg  -28.9295 -8.49657 -10.8049
RightLeg  61.3633 1.32698 2.31857
RightFoot  -2.54675 -0.397118 4.95165
RightToes  2.91037e-010 0 -3.6325e-017
Spine  36.6102 -3.14618 3.56596
Spine1  15.5196 -0.741729 -3.94217
HEad  -17.22 -2.20884 -3.71758
LeftShoulder1  1.10045 0.315106 -28.4078
LeftArm  0.0587399 -21.675 -51.6814
LeftForeArm  18.4441 -24.6457 -4.30918
LeftHand  -0.238939 0.151634 5.31928
RightShoulder  0.172343 -2.89906 23.3793
RightArm  3.03587 20.3877 50.4099
RightForeArm  8.89198 34.629 7.24893
RightHand  -0.620636 5.15914 -7.12315
LeftUpLeg  -24.5163 6.68202 -9.06197
LeftLeg  27.9135 -2.28936 -0.953735
LeftFoot  -0.967024 -0.758133 8.39394
LeftToes  -7.53974e-010 3.3384e-011 -1.25048e-011
153
root  -53.0938 38.2777 -7.3402 -36.4508 -81.4542 35.7089
RightUpLeg  -32.5914 -9.59596 -7.86805
RightLeg  48.1023 -1.41419 -1.99345
RightFoot  -3.94535 -0.372402 5.34141
RightToes  2.91037e-010 0 -3.6325e-017
Spine  38.3174 -3.8058 4.50232
Spine1  15.2921 -0.740611 -4.18754
HEad  -18.9583 -2.49856 -4.1092
LeftShoulder1  1.24012 -0.203085 -27.3149
LeftArm  0.326793 -27.342 -53.0129
LeftForeArm  18.2516 -22.607 -4.01176
LeftHand  -0.168484 0.950269 4.34217
RightShoulder  0.303307 -2.4138 22.2004
RightArm  6.12544 26.044 51.6825
RightForeArm  6.45037 28.3382 5.75996
RightHand  -0.56104 4.48243 -6.87474
LeftUpLeg  -24.1341 7.09595 -9.3869
LeftLeg  25.8355 -2.81096 -1.13099
LeftFoot  -1.52558 -0.682903 8.04809
LeftToes  -7.53974e-010 3.3384e-011 -1.25048e-011
154
root  -54.0426 38.5057 -7.07331 -32.2447 -80.8907 33.6832
RightUpLeg  -33.5885 -12.7314 -4.73856
RightLeg  31.2177 -2.69356 -2.25428
RightFoot  -4.15259 -0.488893 7.30787
RightToes  2.91037e-010 0 -3.6325e-017
Spine  39.9766 -5.13422 5.58083
Spine1  14.4382 -1.29979 -4.87058
HEad  -20.9754 -2.91202 -4.2527
LeftShoulder1  1.31851 -0.595213 -26.0285
LeftArm  -0.985978 -31.4772 -53.9101
LeftForeArm  20.467 -21.5932 -3.92344
LeftHand  -0.145408 1.07053 3.80063
RightShoulder  0.467192 -1.76509 20.7647
RightArm  10.0201 31.3573 53.0655
RightForeArm  3.05897 22.247 4.75592
RightHand  -0.565525 4.94491 -6.63763
LeftUpLeg  -24.4148 6.75891 -9.94764
LeftLeg  25.122 -3.24174 -1.3045
LeftFoot  -2.32237 -0.671938 8.6867
LeftToes  -7.53974e-010 3.3384e-011 -1.25048e-011
155
root  -55.1391 38.5291 -6.95383 -32.3707 -79.94 35.1999
RightUpLeg  -32.8317 -14.6967 -2.73558
RightLeg  16.0498 -0.903168 -0.0430934
RightFoot  -4.93146 -0.601056 10.174
RightToes  2.91037e-010 0 -3.6325e-017
Spine  41.3146 -5.57591 5.75489
Spine1  14.7815 -1.5999 -4.68749
HEad  -23.2043 -4.67355 -4.28726
LeftShoulder1  1.52328 -1.42825 -24.6483
LeftArm  -2.56833 -35.0976 -54.5072
LeftForeArm  23.0325 -21.4175 -3.78457
LeftHand  -0.139089 0.926901 3.45884
RightShoulder  0.546563 -1.36865 19.4282
RightArm  11.4731 36.2644 53.7833
RightForeArm  1.4026 16.8742 4.86285
RightHand  -0.638045 5.67114 -7.00394
LeftUpLeg  -24.5856 7.39563 -10.9109
LeftLeg  26.2946 -4.25609 -1.9414
LeftFoot  -3.82505 -0.615481 9.72737
LeftToes  -7.53974e-010 3.3384e-011 -1.25048e-011
156
root  -56.1729 38.2021 -6.91072 -31.4606 -77.9469 34.7322
RightUpLeg  -32.1537 -12.6409 -4.36978
RightLeg  10.1633 -0.971956 1.39276
RightFoot  -5.37385 -0.66387 11.8229
RightToes  2.91037e-010 0 -3.6325e-017
Spine  43.3331 -5.72719 6.17076
Spine1  14.5828 -2.22435 -3.09327
HEad  -23.9602 -6.76112 -4.41061
LeftShoulder1  1.777 -2.35777 -24.1019
LeftArm  -1.42491 -38.7864 -55.145
LeftForeArm  22.598 -20.3239 -3.92846
LeftHand  -0.213245 -0.156836 4.5304
RightShoulder  0.653089 -0.776274 17.4581
RightArm  9.23459 39.3739 53.0414
RightForeArm  2.97714 12.726 5.3558
RightHand  -0.664044 6.02892 -7.06615
LeftUpLeg  -25.9315 8.19765 -12.0983
LeftLeg  31.5268 -5.61997 -3.36778
LeftFoot  -5.96893 -0.43441 9.83111
LeftToes  -7.53974e-010 3.3384e-011 -1.25048e-011
157
root  -57.0708 37.7485 -6.91406 -32.44 -76.195 34.1386
RightUpLeg  -32.7652 -12.9702 -4.51551
RightLeg  14.4861 2.94848 1.88708
RightFoot  1.56871 -0.419003 5.04412
RightToes  2.91037e-010 0 -3.6325e-017
Spine  47.3533 -6.11049 7.41505
Spine1  14.2635 -2.74068 -2.13523
HEad  -24.8649 -9.02529 -3.70562
LeftShoulder1  1.83687 -2.92248 -22.2438
LeftArm  -1.89538 -42.2186 -57.1017
LeftForeArm  24.468 -19.484 -3.92928
LeftHand  -0.133362 0.636743 3.17742
RightShoulder  0.666103 -0.622557 16.5414
RightArm  7.4506 42.1225 51.7169
RightForeArm  4.23532 9.72859 5.46066
RightHand  -0.670753 6.34301 -6.94529
LeftUpLeg  -28.0915 9.79803 -12.6222
LeftLeg  41.3275 -6.33252 -5.58467
LeftFoot  -5.57825 -0.301318 6.84967
LeftToes  -7.53974e-010 3.3384e-011 -1.25048e-011
158
root  -57.797 37.0569 -6.88306 -31.8064 -73.9969 31.057
RightUpLeg  -35.8406 -18.2256 -3.6452
RightLeg  25.0102 7.59175 3.83969
RightFoot  10.0397 0.712875 -3.83772
RightToes  2.91037e-010 0 -3.6325e-017
Spine  51.7347 -7.3284 9.48211
Spine1  13.8453 -3.56765 -1.13908
HEad  -25.1804 -11.2246 -2.84743
LeftShoulder1  1.92486 -3.60442 -20.7167
LeftArm  -0.329208 -47.4179 -58.0799
LeftForeArm  23.3205 -17.6318 -4.36448
LeftHand  -0.0878389 1.25737 2.31142
RightShoulder  0.627111 -0.636971 15.2001
RightArm  5.63901 45.1951 49.7613
RightForeArm  4.83865 7.33388 5.10668
RightHand  -0.50913 5.18417 -5.89065
LeftUpLeg  -31.9923 10.3926 -12.5309
LeftLeg  53.8732 -5.74215 -7.90233
LeftFoot  -0.844524 -0.0189827 0.725813
LeftToes  -7.53974e-010 3.3384e-011 -1.25048e-011
159
root  -58.518 36.2416 -6.66454 -29.2019 -72.3427 26.525
RightUpLeg  -38.6159 -22.2685 -3.86138
RightLeg  36.4267 8.31291 6.23592
RightFoot  4.8105 0.780965 -5.27941
RightToes  2.91037e-010 0 -3.6325e-017
Spine  55.5611 -10.2454 12.4564
Spine1  12.6849 -4.37031 -2.37486
HEad  -26.5382 -12.4352 -1.76471
LeftShoulder1  1.98276 -4.57783 -17.9089
LeftArm  -1.8638 -50.6014 -58.9599
LeftForeArm  22.8233 -17.2387 -4.11869
LeftHand  -0.109018 0.84337 2.62651
RightShoulder  0.734084 0.0335648 13.933
RightArm  3.91285 49.3923 46.6708
RightForeArm  3.23629 4.30615 4.93531
RightHand  -0.456108 5.04989 -5.37031
LeftUpLeg  -36.3184 9.0276 -11.5124
LeftLeg  63.6003 -3.71446 -7.34874
LeftFoot  3.93984 0.65379 -5.32542
LeftToes  -7.53974e-010 3.3384e-011 -1.25048e-011
160
root  -59.1758 35.679 -6.42845 -25.5948 -70.4467 22.5173
RightUpLeg  -40.8394 -27.0398 -3.57015
RightLeg  43.2563 8.74327 8.36964
RightFoot  1.85316 0.896662 -7.59508
RightToes  2.91037e-010 0 -3.6325e-017
Spine  57.6861 -12.5119 14.3421
Spine1  13.0284 -6.23586 -0.97163
HEad  -29.6695 -12.4101 -1.81635
LeftShoulder1  2.03833 -5.0727 -17.0944
LeftArm  -3.77459 -54.8901 -56.781
LeftForeArm  22.6619 -17.4849 -3.81853
LeftHand  -0.0514057 1.55811 1.32027
RightShoulder  0.828198 1.04083 11.1521
RightArm  0.633842 55.0042 44.2322
RightForeArm  2.82446 0.662662 4.17435
RightHand  -0.49966 5.72012 -5.53406
LeftUpLeg  -40.4764 5.72274 -10.8283
LeftLeg  66.8155 -1.21748 -2.56592
LeftFoot  4.72761 0.191329 -1.49356
LeftToes  -7.53974e-010 3.3384e-011 -1.25048e-011
161
root  -59.8616 35.5069 -6.35021 -26.6609 -68.4392 25.3909
RightUpLeg  -43.3676 -28.7536 -5.00492
RightLeg  46.9351 8.19037 8.94221
RightFoot  -0.441154 0.790987 -8.28277
RightToes  2.91037e-010 0 -3.6325e-017
Spine  60.2805 -12.9174 13.6148
Spine1  11.7173 -7.66473 1.45205
HEad  -32.1319 -12.2319 -1.68702
LeftShoulder1  2.27559 -6.24535 -16.6607
LeftArm  -7.53477 -58.5728 -53.7458
LeftForeArm  21.2932 -17.3755 -3.44231
LeftHand  -0.0990193 1.24663 2.63905
RightShoulder  1.05742 2.91208 9.09147
RightArm  -5.40215 60.1179 36.5642
RightForeArm  0.714277 -1.99305 3.43582
RightHand  -0.489499 5.2885 -5.62336
LeftUpLeg  -43.8116 2.70264 -11.1944
LeftLeg  62.6008 -0.28026 -0.00810789
LeftFoot  3.01503 -0.149235 1.02163
LeftToes  -7.53974e-010 3.3384e-011 -1.25048e-011
162
root  -60.5154 35.5188 -6.25522 -26.7202 -67.3356 28.4355
RightUpLeg  -46.5352 -30.2066 -5.16609
RightLeg  48.7535 8.28533 9.64502
RightFoot  -1.89566 0.701061 -8.62279
RightToes  2.91037e-010 0 -3.6325e-017
Spine  63.1748 -13.8791 13.8069
Spine1  7.94467 -8.11506 1.25856
HEad  -33.527 -12.1802 -0.591726
LeftShoulder1  2.56015 -8.15078 -15.1436
LeftArm  -12.6631 -60.9807 -49.9771
LeftForeArm  20.4978 -17.4417 -2.86605
LeftHand  -0.0801247 1.18253 2.06348
RightShoulder  1.09764 3.95782 7.12089
RightArm  -13.184 61.8811 29.2826
RightForeArm  -2.92699 -1.80932 2.05275
RightHand  -0.529305 5.35825 -6.0196
LeftUpLeg  -45.7166 -1.64446 -10.0526
LeftLeg  52.8368 -0.991339 -0.815243
LeftFoot  1.3097 0.0169349 -0.273626
LeftToes  -7.53974e-010 3.3384e-011 -1.25048e-011
